<?xml version="1.0" encoding="utf-8"?>
<!-- Generator: Adobe Illustrator 19.0.0, SVG Export Plug-In . SVG Version: 6.00 Build 0)  -->
<svg version="1.1" id="Capa_1" xmlns="http://www.w3.org/2000/svg" xmlns:xlink="http://www.w3.org/1999/xlink" x="0px" y="0px"
	 viewBox="-274 76.2 409.8 409.8" style="enable-background:new -274 76.2 409.8 409.8;" xml:space="preserve">
<style type="text/css">
	.st0{fill:#999999;}
</style>
<g>
	<g>
		<path class="st0" d="M-45.1,281.2l175.7-175.7c6.8-6.5,7-17.4,0.4-24.1c-6.5-6.8-17.4-7-24.1-0.4c-0.1,0.1-0.3,0.3-0.4,0.4
			L-69.2,257.1L-244.9,81.4c-6.8-6.5-17.6-6.4-24.1,0.4c-6.4,6.6-6.4,17.1,0,23.7l175.7,175.7L-269,456.9c-6.7,6.7-6.7,17.5,0,24.1
			c6.7,6.7,17.5,6.7,24.1,0l175.7-175.7L106.5,481c6.8,6.5,17.6,6.4,24.1-0.4c6.4-6.6,6.4-17.1,0-23.7L-45.1,281.2z"/>
	</g>
</g>
</svg>
