<?xml version="1.0" encoding="utf-8"?>
<!-- Generator: Adobe Illustrator 19.0.0, SVG Export Plug-In . SVG Version: 6.00 Build 0)  -->
<svg version="1.1" id="Outline" xmlns="http://www.w3.org/2000/svg" xmlns:xlink="http://www.w3.org/1999/xlink" x="0px" y="0px"
	 viewBox="-467 269 24 24" style="enable-background:new -467 269 24 24;" xml:space="preserve">
<style type="text/css">
	.st0{fill:#999999;}
</style>
<title>101 grid</title>
<path class="st0" d="M-462.5,286.5h-2.5c-1.1,0-2,0.9-2,2v2.5c0,1.1,0.9,2,2,2h2.5c1.1,0,2-0.9,2-2v-2.5
	C-460.5,287.4-461.4,286.5-462.5,286.5z M-462.5,291h-2.5v-2.5h2.5V291z"/>
<path class="st0" d="M-445,286.5h-2.5c-1.1,0-2,0.9-2,2v2.5c0,1.1,0.9,2,2,2h2.5c1.1,0,2-0.9,2-2v-2.5
	C-443,287.4-443.9,286.5-445,286.5z M-445,291h-2.5v-2.5h2.5V291z"/>
<path class="st0" d="M-462.5,277.8h-2.5c-1.1,0-2,0.9-2,2v2.5c0,1.1,0.9,2,2,2h2.5c1.1,0,2-0.9,2-2v-2.5
	C-460.5,278.6-461.4,277.8-462.5,277.8z M-462.5,282.3h-2.5v-2.5h2.5V282.3z"/>
<path class="st0" d="M-445,277.8h-2.5c-1.1,0-2,0.9-2,2v2.5c0,1.1,0.9,2,2,2h2.5c1.1,0,2-0.9,2-2v-2.5
	C-443,278.6-443.9,277.8-445,277.8z M-445,282.3h-2.5v-2.5h2.5V282.3z"/>
<path class="st0" d="M-462.5,269h-2.5c-1.1,0-2,0.9-2,2v2.5c0,1.1,0.9,2,2,2h2.5c1.1,0,2-0.9,2-2V271
	C-460.5,269.9-461.4,269-462.5,269z M-462.5,273.5h-2.5V271h2.5V273.5z"/>
<path class="st0" d="M-453.8,286.5h-2.5c-1.1,0-2,0.9-2,2v2.5c0,1.1,0.9,2,2,2h2.5c1.1,0,2-0.9,2-2v-2.5
	C-451.8,287.4-452.6,286.5-453.8,286.5z M-453.8,291h-2.5v-2.5h2.5V291z"/>
<path class="st0" d="M-453.8,277.8h-2.5c-1.1,0-2,0.9-2,2v2.5c0,1.1,0.9,2,2,2h2.5c1.1,0,2-0.9,2-2v-2.5
	C-451.8,278.6-452.6,277.8-453.8,277.8z M-453.8,282.3h-2.5v-2.5h2.5V282.3z"/>
<path class="st0" d="M-453.8,269h-2.5c-1.1,0-2,0.9-2,2v2.5c0,1.1,0.9,2,2,2h2.5c1.1,0,2-0.9,2-2V271
	C-451.8,269.9-452.6,269-453.8,269z M-453.8,273.5h-2.5V271h2.5V273.5z"/>
<path class="st0" d="M-445,269h-2.5c-1.1,0-2,0.9-2,2v2.5c0,1.1,0.9,2,2,2h2.5c1.1,0,2-0.9,2-2V271C-443,269.9-443.9,269-445,269z
	 M-445,273.5h-2.5V271h2.5V273.5z"/>
</svg>
