<?xml version="1.0" encoding="utf-8"?>
<!-- Generator: Adobe Illustrator 19.0.0, SVG Export Plug-In . SVG Version: 6.00 Build 0)  -->
<svg version="1.1" id="Outline" xmlns="http://www.w3.org/2000/svg" xmlns:xlink="http://www.w3.org/1999/xlink" x="0px" y="0px"
	 viewBox="-467 269 24 24" style="enable-background:new -467 269 24 24;" xml:space="preserve">
<style type="text/css">
	.st0{fill:#999999;}
</style>
<title>103 shopping cart</title>
<path class="st0" d="M-444.3,273.1c-0.6-0.7-1.4-1.1-2.3-1.1h-16.2l0-0.4c-0.2-1.5-1.5-2.6-3-2.6h-0.2c-0.6,0-1,0.4-1,1s0.4,1,1,1
	h0.2c0.5,0,0.9,0.4,1,0.9l1.4,11.7c0.3,2.5,2.4,4.4,5,4.4h10.4c0.6,0,1-0.4,1-1s-0.4-1-1-1h-10.4c-1.3,0-2.4-0.8-2.8-2h11.9
	c2.4,0,4.5-1.7,4.9-4.1l0.8-4.4C-443.5,274.7-443.7,273.8-444.3,273.1z M-445.6,275.2l-0.8,4.4c-0.3,1.4-1.5,2.5-3,2.5h-12.2l-0.9-8
	h15.9c0.6,0,1,0.4,1,1C-445.6,275.1-445.6,275.1-445.6,275.2z"/>
<circle class="st0" cx="-460" cy="291" r="2"/>
<circle class="st0" cx="-450" cy="291" r="2"/>
</svg>
