<?xml version="1.0" encoding="utf-8"?>
<!-- Generator: Adobe Illustrator 19.0.0, SVG Export Plug-In . SVG Version: 6.00 Build 0)  -->
<svg version="1.1" id="Outline" xmlns="http://www.w3.org/2000/svg" xmlns:xlink="http://www.w3.org/1999/xlink" x="0px" y="0px"
	 viewBox="-467 269 24 24" style="enable-background:new -467 269 24 24;" xml:space="preserve">
<style type="text/css">
	.st0{fill:#222222;}
</style>
<title>05 list</title>
<path class="st0" d="M-460,275h16c0.6,0,1-0.4,1-1s-0.4-1-1-1h-16c-0.6,0-1,0.4-1,1S-460.6,275-460,275z"/>
<path class="st0" d="M-444,280h-16c-0.6,0-1,0.4-1,1s0.4,1,1,1h16c0.6,0,1-0.4,1-1S-443.4,280-444,280z"/>
<path class="st0" d="M-444,287h-16c-0.6,0-1,0.4-1,1s0.4,1,1,1h16c0.6,0,1-0.4,1-1S-443.4,287-444,287z"/>
<circle class="st0" cx="-465" cy="274" r="2"/>
<circle class="st0" cx="-465" cy="281" r="2"/>
<circle class="st0" cx="-465" cy="288" r="2"/>
</svg>
