<?xml version="1.0" encoding="utf-8"?>
<!-- Generator: Adobe Illustrator 19.0.0, SVG Export Plug-In . SVG Version: 6.00 Build 0)  -->
<svg version="1.1" id="Layer_1" xmlns="http://www.w3.org/2000/svg" xmlns:xlink="http://www.w3.org/1999/xlink" x="0px" y="0px"
	 viewBox="-467 269 24 24" style="enable-background:new -467 269 24 24;" xml:space="preserve">
<style type="text/css">
	.st0{fill:#222222;}
</style>
<path class="st0" d="M-459.5,282c-2.5,0-4.5-2-4.5-4.5s2-4.5,4.5-4.5s4.5,2,4.5,4.5S-457,282-459.5,282z M-459.5,275
	c-1.4,0-2.5,1.1-2.5,2.5s1.1,2.5,2.5,2.5s2.5-1.1,2.5-2.5S-458.1,275-459.5,275z M-452,292v-0.5c0-4.1-3.4-7.5-7.5-7.5
	s-7.5,3.4-7.5,7.5v0.5c0,0.6,0.4,1,1,1s1-0.4,1-1v-0.5c0-3,2.5-5.5,5.5-5.5s5.5,2.5,5.5,5.5v0.5c0,0.6,0.4,1,1,1S-452,292.6-452,292
	z M-443,287c0-3.9-3.1-7-7-7c-1.7,0-3.4,0.6-4.7,1.8c-0.4,0.4-0.5,1-0.1,1.4s1,0.5,1.4,0.1l0,0c2.1-1.8,5.2-1.7,7.1,0.4
	c0.8,0.9,1.3,2.1,1.3,3.3c0,0.6,0.4,1,1,1S-443,287.6-443,287z M-449.5,278c-2.5,0-4.5-2-4.5-4.5s2-4.5,4.5-4.5s4.5,2,4.5,4.5
	S-447,278-449.5,278z M-449.5,271c-1.4,0-2.5,1.1-2.5,2.5s1.1,2.5,2.5,2.5s2.5-1.1,2.5-2.5S-448.1,271-449.5,271z"/>
</svg>
