<?xml version="1.0" encoding="utf-8"?>
<!-- Generator: Adobe Illustrator 19.0.0, SVG Export Plug-In . SVG Version: 6.00 Build 0)  -->
<svg version="1.1" id="Outline" xmlns="http://www.w3.org/2000/svg" xmlns:xlink="http://www.w3.org/1999/xlink" x="0px" y="0px"
	 viewBox="-467 269 24 24" style="enable-background:new -467 269 24 24;" xml:space="preserve">
<style type="text/css">
	.st0{fill:#222222;}
</style>
<title>121 heart</title>
<path class="st0" d="M-449.5,270.4c-2.3,0-4.4,1.3-5.5,3.3c-1.1-2-3.2-3.3-5.5-3.3c-3.7,0.2-6.6,3.3-6.5,7.1c0,4.5,4.8,9.5,8.8,12.9
	c1.9,1.6,4.5,1.6,6.4,0c4-3.4,8.8-8.3,8.8-12.9C-442.9,273.7-445.8,270.6-449.5,270.4z M-453.1,288.8c-1.1,0.9-2.7,0.9-3.8,0
	c-5.1-4.3-8.1-8.4-8.1-11.3c-0.1-2.6,1.9-4.9,4.5-5.1c2.6,0.2,4.6,2.4,4.5,5.1c0,0.6,0.4,1,1,1s1-0.4,1-1c-0.1-2.6,1.9-4.9,4.5-5.1
	c2.6,0.2,4.6,2.4,4.5,5.1C-445,280.4-447.9,284.5-453.1,288.8L-453.1,288.8z"/>
</svg>
