<?xml version="1.0" encoding="utf-8"?>
<!-- Generator: Adobe Illustrator 19.0.0, SVG Export Plug-In . SVG Version: 6.00 Build 0)  -->
<svg version="1.1" id="Outline" xmlns="http://www.w3.org/2000/svg" xmlns:xlink="http://www.w3.org/1999/xlink" x="0px" y="0px"
	 viewBox="-467 269 24 24" style="enable-background:new -467 269 24 24;" xml:space="preserve">
<style type="text/css">
	.st0{fill:#999999;}
</style>
<title>17 search</title>
<path class="st0" d="M-443.3,291.3l-6-6c3.5-4.3,2.9-10.6-1.4-14.1c-4.3-3.5-10.6-2.9-14.1,1.4c-3.5,4.3-2.9,10.6,1.4,14.1
	c3.7,3,9,3,12.7,0l6,6c0.4,0.4,1,0.4,1.4,0C-442.9,292.3-442.9,291.7-443.3,291.3z M-457,287c-4.4,0-8-3.6-8-8s3.6-8,8-8s8,3.6,8,8
	C-449,283.4-452.6,287-457,287z"/>
</svg>
